<?xml version="1.0" standalone="no"?>
<!DOCTYPE svg PUBLIC "-//W3C//DTD SVG 20010904//EN"
 "http://www.w3.org/TR/2001/REC-SVG-20010904/DTD/svg10.dtd">
<svg version="1.0" xmlns="http://www.w3.org/2000/svg"
 width="500.000000pt" height="500.000000pt" viewBox="0 0 500.000000 500.000000"
 preserveAspectRatio="xMidYMid meet">
<metadata>
Created by potrace 1.11, written by Peter Selinger 2001-2013
</metadata>
<g transform="translate(0.000000,500.000000) scale(0.100000,-0.100000)"
fill="#000000" stroke="none">
<path d="M1000 4165 l0 -165 -165 0 -165 0 0 -165 0 -165 -170 0 -170 0 0
-670 0 -670 170 0 170 0 0 -165 0 -165 165 0 165 0 0 -165 0 -165 165 0 165 0
0 -170 0 -170 170 0 170 0 0 -165 0 -165 165 0 165 0 0 -165 0 -165 165 0 165
0 0 -170 0 -170 170 0 170 0 0 170 0 170 165 0 166 0 -3 168 -3 167 168 -3
168 -3 -3 168 -3 168 173 -3 173 -3 -3 173 -3 173 168 -3 168 -3 -3 168 -3
168 168 -3 168 -3 -3 168 -3 168 173 -3 172 -3 0 671 0 671 -172 -3 -173 -3 3
168 3 168 -168 -3 -168 -3 3 168 3 167 -501 0 -501 0 3 -167 3 -168 -168 3
-168 3 3 -168 3 -168 -172 3 -173 3 0 164 0 165 -165 0 -165 0 0 165 0 165
-500 0 -500 0 0 -165z"/>
</g>
</svg>
