<svg width="824" height="822" viewBox="0 0 824 822" fill="none" xmlns="http://www.w3.org/2000/svg">
<path d="M823.306 518.748C823.306 633.761 713.626 693.748 578.319 693.748C443.013 693.748 333.319 633.761 333.319 518.748C333.319 298.255 511.813 160.001 571.319 160.001C623.813 160.001 823.306 293.001 823.306 518.748Z" fill="#542B7F"/>
<path d="M492.56 39.2548C492.56 39.2548 555.546 88.2549 544.8 177.508H573.986L603.173 182.748C603.173 182.748 558.626 11.2549 529.44 7.7616L492.56 39.2548" fill="#542B7F"/>
<path d="M586.6 612.001C586.6 749.548 455.413 821.295 293.6 821.295C131.786 821.295 0.599609 749.548 0.599609 612.001C0.599609 348.308 214.066 182.975 285.226 182.975C348.013 182.975 586.6 342.028 586.6 612.001Z" fill="#542B7F"/>
<path d="M191.053 38.575C191.053 38.575 266.373 97.175 253.519 203.908H288.426L323.333 210.188C323.333 210.188 270.053 5.08163 235.146 0.908297L191.053 38.575" fill="#542B7F"/>
<path d="M281.04 214.375C281.04 214.375 23.3597 306.468 25.7197 607.815C27.8131 875.708 520.386 810.215 548.92 681.068C588.693 501.081 475.68 260.415 281.04 214.375Z" fill="#FEFEE9"/>
<path d="M281.307 218.535C272.613 221.868 213.306 245.935 155 301.215C97.1731 356.028 28.5065 453.708 29.7065 607.788C30.1865 669.028 56.4663 716.162 107.826 747.908C163.253 782.162 232.667 789.362 281.147 789.362H281.16C342.013 789.362 405.52 777.748 455.4 757.495C506.8 736.628 538.626 709.188 545.026 680.215C583.72 505.082 476.947 265.682 281.307 218.535V218.535ZM281.16 797.335C281.146 797.335 281.147 797.335 281.147 797.335C247.507 797.335 215.626 793.948 186.386 787.268C154.746 780.028 126.906 769.082 103.626 754.695C78.173 738.962 58.3064 719.175 44.5998 695.895C29.6798 670.562 21.9864 640.935 21.7331 607.855C21.1864 538.522 34.4 474.482 61.0133 417.522C82.2933 371.935 112.16 330.775 149.76 295.188C183.186 263.548 216.68 242.268 238.893 229.975C263.013 216.628 279.026 210.855 279.693 210.615L280.813 210.215L281.96 210.495C329.373 221.708 373.533 244.548 413.186 278.375C450.106 309.855 481.466 349.295 506.4 395.602C530.173 439.762 547.027 489.015 555.147 538.042C563.4 587.908 562.6 637.668 552.813 681.935C545.84 713.548 512.306 743.002 458.4 764.882C407.6 785.508 343 797.335 281.16 797.335Z" fill="#3F9438"/>
<path d="M279.747 253.414C279.747 253.414 57.24 332.948 59.2667 593.175C61.08 824.495 479.987 786.668 511.067 656.428C553.08 480.388 447.814 293.174 279.747 253.414" fill="#BF1C2E"/>
<path d="M129.653 451.721C136.573 456.735 138.506 465.868 133.973 472.121C129.44 478.375 120.159 479.388 113.253 474.375C106.333 469.375 104.4 460.241 108.933 453.988C113.466 447.735 122.746 446.721 129.653 451.721Z" fill="#CB304D"/>
<path d="M114.267 458.148L114.533 475.308C114.533 475.308 144.32 496.415 181.68 487.428C181.68 487.428 144.213 481.575 135.093 462.375C125.973 443.175 114.267 458.148 114.267 458.148Z" fill="#CB304D"/>
<path d="M106.266 512.095C114.786 512.682 121.253 519.415 120.706 527.122C120.173 534.828 112.826 540.588 104.319 540.002C95.7995 539.402 89.3332 532.668 89.8799 524.962C90.4132 517.255 97.7464 511.495 106.266 512.095Z" fill="#CB304D"/>
<path d="M96.5996 525.681L105.893 540.108C105.893 540.108 142.346 542.281 169.293 514.881C169.293 514.881 134.4 529.735 116.506 518.255C98.6264 506.775 96.5996 525.681 96.5996 525.681" fill="#CB304D"/>
<path d="M106.426 579.601C114.933 578.988 122.293 584.735 122.84 592.441C123.4 600.148 116.946 606.895 108.426 607.508C99.9197 608.121 92.56 602.375 92.0134 594.668C91.4534 586.961 97.9064 580.215 106.426 579.601Z" fill="#CB304D"/>
<path d="M98.7595 594.415L110.013 607.388C110.013 607.388 146.4 604.388 169.213 573.468C169.213 573.468 136.759 593.095 117.426 584.255C98.1061 575.415 98.7595 594.415 98.7595 594.415Z" fill="#CB304D"/>
<path d="M125.04 644.255C133.253 641.935 141.613 646.068 143.72 653.495C145.826 660.935 140.88 668.842 132.667 671.175C124.453 673.495 116.08 669.362 113.986 661.935C111.88 654.495 116.827 646.588 125.04 644.255Z" fill="#CB304D"/>
<path d="M120.547 660.321L134.187 670.735C134.187 670.735 169.214 660.428 185.28 625.521C185.28 625.521 157.48 651.308 136.76 646.588C116.04 641.855 120.547 660.321 120.547 660.321Z" fill="#CB304D"/>
<path d="M172.453 690.135C178.2 683.828 187.48 682.908 193.2 688.108C198.92 693.308 198.907 702.642 193.16 708.962C187.413 715.268 178.134 716.188 172.414 710.988C166.694 705.788 166.706 696.455 172.453 690.135Z" fill="#CB304D"/>
<path d="M177.133 706.148L194.226 707.788C194.226 707.788 218.493 680.508 213.68 642.388C213.68 642.388 203.72 678.975 183.64 685.921C163.546 692.855 177.133 706.148 177.133 706.148" fill="#CB304D"/>
<path d="M238.92 715.122C243.707 708.055 252.787 705.842 259.174 710.175C265.574 714.508 266.867 723.748 262.067 730.815C257.28 737.881 248.213 740.095 241.827 735.762C235.427 731.428 234.133 722.188 238.92 715.122" fill="#CB304D"/>
<path d="M245.813 730.308L262.96 729.508C262.96 729.508 283.133 699.082 273 662.015C273 662.015 268.306 699.642 249.386 709.348C230.48 719.055 245.813 730.308 245.813 730.308Z" fill="#CB304D"/>
<path d="M309.253 726.308C309.773 717.788 316.44 711.255 324.147 711.721C331.867 712.188 337.693 719.468 337.187 727.988C336.68 736.508 330.013 743.041 322.293 742.588C314.587 742.121 308.747 734.842 309.253 726.308Z" fill="#CB304D"/>
<path d="M322.947 735.855L337.28 726.415C337.28 726.415 339.093 689.948 311.44 663.255C311.44 663.255 326.626 698.015 315.32 716.015C304.026 734.015 322.947 735.855 322.947 735.855" fill="#CB304D"/>
<path d="M380.533 715.575C376.467 708.082 378.667 699.002 385.453 695.322C392.253 691.642 401.053 694.735 405.12 702.242C409.2 709.748 406.987 718.815 400.2 722.495C393.4 726.175 384.6 723.082 380.533 715.575Z" fill="#CB304D"/>
<path d="M397.187 716.442L404.36 700.842C404.36 700.842 386.627 668.935 349.053 660.908C349.053 660.908 380.307 682.375 380.227 703.628C380.147 724.882 397.187 716.442 397.187 716.442Z" fill="#CB304D"/>
<path d="M439.347 683.095C434.254 676.242 435.16 666.948 441.36 662.335C447.573 657.735 456.72 659.561 461.814 666.415C466.894 673.268 466 682.562 459.8 687.162C453.587 691.762 444.44 689.948 439.347 683.095" fill="#CB304D"/>
<path d="M455.96 681.588L460.867 665.135C460.867 665.135 438.8 636.054 400.467 633.414C400.467 633.414 434.44 650.255 437.36 671.308C440.293 692.361 455.96 681.588 455.96 681.588" fill="#CB304D"/>
<path d="M474.159 626.828C467.786 621.148 466.786 611.868 471.933 606.108C477.066 600.335 486.4 600.268 492.773 605.948C499.146 611.615 500.146 620.895 495.013 626.668C489.866 632.442 480.533 632.508 474.159 626.828" fill="#CB304D"/>
<path d="M490.133 622.002L491.587 604.895C491.587 604.895 464.08 580.882 426.014 586.068C426.014 586.068 462.693 595.668 469.827 615.695C476.96 635.708 490.133 622.002 490.133 622.002Z" fill="#CB304D"/>
<path d="M487.413 562.188C479 560.735 473.239 553.388 474.559 545.775C475.866 538.162 483.759 533.175 492.159 534.615C500.573 536.068 506.333 543.415 505.026 551.028C503.706 558.642 495.826 563.642 487.413 562.188Z" fill="#CB304D"/>
<path d="M498.4 549.642L490.6 534.348C490.6 534.348 454.56 528.522 424.986 553.055C424.986 553.055 461.2 541.802 477.84 555.028C494.48 568.242 498.4 549.642 498.4 549.642" fill="#CB304D"/>
<path d="M477.4 502.308C468.866 502.068 462.133 495.601 462.36 487.881C462.586 480.161 469.693 474.108 478.213 474.348C486.747 474.601 493.48 481.055 493.266 488.775C493.04 496.508 485.933 502.561 477.4 502.308Z" fill="#CB304D"/>
<path d="M486.519 488.348L476.64 474.308C476.64 474.308 440.133 473.615 414.319 502.081C414.319 502.081 448.573 485.828 466.919 496.575C485.253 507.308 486.519 488.348 486.519 488.348Z" fill="#CB304D"/>
<path d="M446.974 400.468C439.72 404.975 430.533 403.322 426.453 396.762C422.373 390.202 424.947 381.228 432.2 376.708C439.44 372.202 448.627 373.868 452.707 380.428C456.787 386.988 454.214 395.962 446.974 400.468Z" fill="#CB304D"/>
<path d="M446.84 383.788L430.853 377.548C430.853 377.548 400.053 397.148 394.253 435.135C394.253 435.135 413.826 402.668 435.053 401.481C456.28 400.295 446.84 383.788 446.84 383.788Z" fill="#CB304D"/>
<path d="M394.08 342.375C390.307 350.042 381.64 353.481 374.707 350.068C367.774 346.655 365.214 337.682 368.974 330.028C372.747 322.362 381.427 318.921 388.36 322.335C395.28 325.748 397.854 334.722 394.08 342.375Z" fill="#CB304D"/>
<path d="M385.16 328.281L368.28 331.442C368.28 331.442 352.494 364.362 367.667 399.668C367.667 399.668 367.12 361.762 384.507 349.535C401.894 337.308 385.16 328.281 385.16 328.281" fill="#CB304D"/>
<path d="M335.414 309.215C332.76 317.335 324.653 321.962 317.32 319.562C309.973 317.162 306.174 308.642 308.814 300.535C311.467 292.415 319.573 287.788 326.92 290.175C334.253 292.575 338.067 301.095 335.414 309.215" fill="#CB304D"/>
<path d="M324.586 296.522L308.319 302.028C308.319 302.028 297.346 336.855 317.359 369.668C317.359 369.668 311.453 332.215 326.933 317.655C342.426 303.095 324.586 296.522 324.586 296.522" fill="#CB304D"/>
<path d="M268.519 305.908C267.573 314.388 260.573 320.575 252.893 319.708C245.213 318.855 239.76 311.282 240.706 302.788C241.666 294.308 248.653 288.135 256.333 288.988C264.013 289.855 269.466 297.428 268.519 305.908Z" fill="#CB304D"/>
<path d="M255.347 295.682L240.533 304.375C240.533 304.375 236.853 340.695 263.093 368.762C263.093 368.762 249.72 333.282 261.933 315.882C274.146 298.495 255.347 295.682 255.347 295.682" fill="#CB304D"/>
<path d="M206.174 344.135C209.84 351.842 207.173 360.788 200.2 364.122C193.24 367.442 184.6 363.895 180.92 356.202C177.24 348.495 179.907 339.548 186.88 336.228C193.854 332.895 202.494 336.442 206.174 344.135" fill="#CB304D"/>
<path d="M189.573 342.428L181.6 357.628C181.6 357.628 197.68 390.402 234.8 400.362C234.8 400.362 204.679 377.308 205.853 356.095C207.026 334.868 189.573 342.428 189.573 342.428Z" fill="#CB304D"/>
<path d="M163.093 386.922C167.826 394.028 166.44 403.255 160.013 407.535C153.587 411.815 144.533 409.522 139.8 402.415C135.08 395.322 136.453 386.082 142.88 381.802C149.32 377.522 158.36 379.815 163.093 386.922Z" fill="#CB304D"/>
<path d="M146.427 387.562L140.68 403.735C140.68 403.735 161.227 433.922 199.373 438.535C199.373 438.535 166.307 419.975 164.467 398.802C162.627 377.615 146.427 387.562 146.427 387.562" fill="#CB304D"/>
<path d="M462.84 450.442C454.586 452.602 446.306 448.282 444.359 440.802C442.413 433.322 447.533 425.522 455.799 423.375C464.053 421.215 472.333 425.535 474.28 433.015C476.213 440.495 471.106 448.295 462.84 450.442Z" fill="#CB304D"/>
<path d="M467.68 434.482L454.253 423.775C454.253 423.775 419.026 433.335 402.2 467.882C402.2 467.882 430.546 442.695 451.16 447.868C471.786 453.042 467.68 434.482 467.68 434.482Z" fill="#CB304D"/>
<path d="M212.12 490.281C219.026 495.281 220.96 504.414 216.426 510.681C211.893 516.934 202.613 517.948 195.707 512.935C188.8 507.935 186.866 498.801 191.4 492.548C195.92 486.281 205.2 485.268 212.12 490.281Z" fill="#CB304D"/>
<path d="M196.72 496.695L196.986 513.868C196.986 513.868 226.773 534.975 264.133 525.975C264.133 525.975 226.666 520.135 217.56 500.921C208.44 481.721 196.72 496.695 196.72 496.695" fill="#CB304D"/>
<path d="M193.373 557.629C201.893 558.215 208.36 564.948 207.826 572.655C207.28 580.362 199.946 586.135 191.426 585.535C182.92 584.935 176.453 578.215 176.986 570.508C177.52 562.802 184.867 557.029 193.373 557.629Z" fill="#CB304D"/>
<path d="M183.707 571.215L193.013 585.642C193.013 585.642 229.453 587.815 256.413 560.429C256.413 560.429 221.506 575.268 203.626 563.788C185.733 552.308 183.707 571.215 183.707 571.215" fill="#CB304D"/>
<path d="M223.28 611.001C230.174 605.961 239.454 606.935 244.014 613.175C248.574 619.402 246.68 628.548 239.786 633.588C232.906 638.628 223.613 637.655 219.053 631.415C214.493 625.175 216.387 616.041 223.28 611.001Z" fill="#CB304D"/>
<path d="M224.653 627.628L241.067 632.655C241.067 632.655 270.32 610.802 273.253 572.482C273.253 572.482 256.161 606.335 235.081 609.108C214.014 611.868 224.653 627.628 224.653 627.628" fill="#CB304D"/>
<path d="M297.933 642.748C298.44 634.228 305.106 627.695 312.826 628.161C320.533 628.628 326.373 635.908 325.853 644.428C325.346 652.948 318.68 659.481 310.973 659.015C303.253 658.548 297.426 651.268 297.933 642.748" fill="#CB304D"/>
<path d="M311.613 652.281L325.947 642.842C325.947 642.842 327.76 606.375 300.12 579.695C300.12 579.695 315.293 614.442 304 632.442C292.693 650.442 311.613 652.281 311.613 652.281Z" fill="#CB304D"/>
<path d="M361.307 623.948C356.214 617.095 357.12 607.802 363.32 603.202C369.52 598.602 378.68 600.415 383.774 607.268C388.854 614.122 387.947 623.415 381.747 628.015C375.547 632.628 366.4 630.801 361.307 623.948Z" fill="#CB304D"/>
<path d="M377.919 622.455L382.826 606.001C382.826 606.001 360.76 576.921 322.413 574.268C322.413 574.268 356.386 591.108 359.319 612.162C362.239 633.215 377.919 622.455 377.919 622.455" fill="#CB304D"/>
<path d="M389.146 565.362C382.773 559.682 381.773 550.402 386.906 544.642C392.053 538.868 401.386 538.802 407.759 544.482C414.133 550.148 415.133 559.428 409.986 565.202C404.853 570.975 395.52 571.042 389.146 565.362" fill="#CB304D"/>
<path d="M405.107 560.535L406.573 543.428C406.573 543.428 379.066 519.415 340.986 524.601C340.986 524.601 377.667 534.202 384.8 554.228C391.933 574.242 405.107 560.535 405.107 560.535Z" fill="#CB304D"/>
<path d="M388.92 489.308C380.387 489.068 373.653 482.601 373.867 474.881C374.093 467.161 381.2 461.108 389.733 461.348C398.267 461.601 405 468.055 404.774 475.775C404.547 483.508 397.453 489.561 388.92 489.308Z" fill="#CB304D"/>
<path d="M398.027 475.348L388.147 461.308C388.147 461.308 351.64 460.615 325.827 489.081C325.827 489.081 360.093 472.828 378.427 483.575C396.773 494.308 398.027 475.348 398.027 475.348Z" fill="#CB304D"/>
<path d="M356.947 436.281C351.747 443.041 342.56 444.708 336.44 439.988C330.32 435.282 329.573 425.975 334.786 419.215C339.986 412.441 349.173 410.788 355.293 415.495C361.413 420.215 362.16 429.508 356.947 436.281Z" fill="#CB304D"/>
<path d="M350.986 420.708L333.813 420.468C333.813 420.468 311.84 449.628 319.746 487.228C319.746 487.228 326.693 449.948 346.146 441.401C365.613 432.855 350.986 420.708 350.986 420.708Z" fill="#CB304D"/>
<path d="M310.147 400.708C307.494 408.815 299.387 413.455 292.04 411.055C284.694 408.655 280.894 400.135 283.547 392.015C286.2 383.895 294.294 379.268 301.64 381.668C308.987 384.068 312.787 392.588 310.147 400.708Z" fill="#CB304D"/>
<path d="M299.32 388.015L283.053 393.522C283.053 393.522 272.08 428.348 292.08 461.148C292.08 461.148 286.187 423.695 301.667 409.135C317.16 394.575 299.32 388.015 299.32 388.015Z" fill="#CB304D"/>
<path d="M242.107 424.562C245.787 432.269 243.12 441.215 236.147 444.548C229.174 447.868 220.533 444.335 216.853 436.629C213.173 428.922 215.854 419.975 222.814 416.655C229.787 413.322 238.427 416.869 242.107 424.562Z" fill="#CB304D"/>
<path d="M225.507 422.855L217.547 438.055C217.547 438.055 233.613 470.828 270.733 480.788C270.733 480.788 240.626 457.735 241.786 436.521C242.96 415.295 225.507 422.855 225.507 422.855" fill="#CB304D"/>
</svg>
